<svg id="svg" version="1.1" width="400" height="333.47368421052636" viewBox="0 0 400 333.47368421052636" xmlns="http://www.w3.org/2000/svg" xmlns:xlink="http://www.w3.org/1999/xlink" ><g id="svgg"><path id="path0" d="M61.053 118.000 C 61.053 150.016,61.124 176.205,61.211 176.198 C 61.297 176.190,66.247 172.799,72.211 168.661 L 83.053 161.137 83.106 121.305 L 83.159 81.474 98.947 81.474 L 114.735 81.474 114.789 110.317 L 114.842 139.160 123.842 132.938 L 132.842 126.717 132.842 104.095 L 132.842 81.474 148.630 81.474 L 164.418 81.474 164.472 93.138 L 164.526 104.802 175.526 97.197 L 186.526 89.592 186.526 74.690 L 186.526 59.789 123.789 59.789 L 61.053 59.789 61.053 118.000 M207.789 74.690 L 207.789 89.592 218.789 97.197 L 229.789 104.802 229.844 93.138 L 229.898 81.474 245.686 81.474 L 261.474 81.474 261.474 104.095 L 261.474 126.717 270.474 132.938 L 279.474 139.160 279.527 110.317 L 279.580 81.474 295.369 81.474 L 311.157 81.474 311.210 121.305 L 311.263 161.137 322.105 168.661 C 328.068 172.799,333.018 176.190,333.105 176.198 C 333.192 176.205,333.263 150.016,333.263 118.000 L 333.263 59.789 270.526 59.789 L 207.789 59.789 207.789 74.690 M175.421 121.320 L 164.421 128.942 164.421 190.576 L 164.421 252.211 148.632 252.211 L 132.842 252.211 132.842 201.561 C 132.842 169.725,132.768 150.938,132.642 150.982 C 132.533 151.021,128.461 153.800,123.594 157.158 L 114.746 163.263 114.741 207.737 L 114.737 252.211 98.947 252.211 L 83.158 252.211 83.158 218.737 C 83.158 200.326,83.113 185.263,83.059 185.263 C 83.005 185.263,78.055 188.657,72.059 192.805 L 61.158 200.347 61.105 237.753 L 61.051 275.158 123.789 275.158 L 186.526 275.158 186.526 194.421 C 186.526 150.016,186.503 113.688,186.474 113.692 C 186.445 113.696,181.471 117.129,175.421 121.320 M207.789 194.409 L 207.789 275.158 270.527 275.158 L 333.264 275.158 333.211 237.753 L 333.158 200.347 322.257 192.805 C 316.261 188.657,311.311 185.263,311.257 185.263 C 311.202 185.263,311.158 200.326,311.158 218.737 L 311.158 252.211 295.368 252.211 L 279.579 252.211 279.574 207.737 L 279.570 163.263 270.721 157.158 C 265.855 153.800,261.783 151.021,261.673 150.982 C 261.548 150.938,261.474 169.725,261.474 201.561 L 261.474 252.211 245.684 252.211 L 229.895 252.211 229.895 190.575 L 229.895 128.939 221.535 123.154 C 216.937 119.972,211.963 116.534,210.482 115.514 L 207.789 113.661 207.789 194.409 " stroke="none" fill="#04fcfc" fill-rule="evenodd"></path><path id="path1" d="" stroke="none" fill="#08fcfc" fill-rule="evenodd"></path><path id="path2" d="" stroke="none" fill="#08fcfc" fill-rule="evenodd"></path><path id="path3" d="" stroke="none" fill="#08fcfc" fill-rule="evenodd"></path><path id="path4" d="" stroke="none" fill="#08fcfc" fill-rule="evenodd"></path></g></svg>